<?xml version="1.0" encoding="UTF-8"?>
<svg id="Layer_1" data-name="Layer 1" xmlns="http://www.w3.org/2000/svg" width="190" viewBox="0 -5 81.02 28.27">
  <defs>
    <style>
      .cls-1 {
        fill: #80556b;
      }

      .cls-2 {
        fill: #666;
      }
    </style>
  </defs>
  <path class="cls-2" d="m.28.29l-.28.29v22.15l.29.26.29.28h19.72c19.56,0,19.72,0,19.97-.25s.25-.41.25-11.36V.54l-.29-.26-.29-.28H.54s-.26.29-.26.29Zm8.42,4.19c.15.11.49.49.75.84.28.34.6.74.71.88s.45.56.75.95c1.23,1.59,1.88,2.36,2.01,2.36.09-.01.34-.25.55-.54.23-.29.74-.93,1.13-1.43.4-.49,1-1.25,1.34-1.69s.79-.98,1-1.2l.38-.4h2.01c1.4,0,2.06.05,2.16.15.11.11.15,1.91.15,7.32,0,6.95-.01,7.17-.24,7.29-.29.15-3.75.18-3.98.03-.13-.08-.16-1.05-.19-3.9l-.04-3.81h-.28c-.28,0-.41.16-1.94,2.13-.76.98-.91,1.18-1.71,2.06l-.4.44-.35-.44c-.2-.24-1.05-1.3-1.89-2.35-1.04-1.31-1.59-1.9-1.73-1.88-.19.04-.21.39-.25,3.78-.03,2.61-.08,3.8-.18,3.91-.11.15-.54.18-2.11.14-1.09-.03-2-.08-2.05-.11-.1-.1-.1-14.46,0-14.62.05-.08.93-.13,2.1-.13,1.74,0,2.06.04,2.28.23h.02Zm24.75-.01c.05.11.08,1.78.08,3.68s0,3.54.06,3.61c.06.1.7.14,2.04.11,1.38-.03,1.96.01,2,.11.03.08-.2.39-.5.68-.3.3-.95,1.03-1.46,1.6-.51.59-.96,1.09-1.01,1.13-.04.04-.8.88-1.69,1.85l-1.61,1.8-.7-.74c-.63-.66-1.68-1.83-3.44-3.79-.34-.38-.98-1.06-1.41-1.51-.45-.46-.78-.91-.75-1,.04-.13.46-.15,1.86-.13.99.01,1.9-.01,2.03-.05.2-.09.21-.38.21-3.63,0-1.95.04-3.63.08-3.74.06-.18.38-.2,2.11-.2s2.05.03,2.11.21h-.01Z"/>
  <g>
    <path class="cls-1" d="m56.03,13.59h-4.32v4.32h-2.27v-4.32h-4.35v-2.28h4.35v-4.35h2.27v4.35h4.32v2.28Z"/>
    <path class="cls-1" d="m67.23,12.64c0,2.16-.5,3.81-1.5,4.95-1,1.15-2.45,1.72-4.34,1.72-.85,0-1.63-.15-2.35-.44v-3.4c.62.47,1.32.71,2.09.71,1.66,0,2.48-1.23,2.48-3.68V2.93h3.62v9.71Z"/>
    <path class="cls-1" d="m70.02,18.42v-3.59c.65.55,1.36.96,2.12,1.23.76.27,1.54.41,2.31.41.46,0,.85-.04,1.2-.12s.62-.2.85-.34c.23-.15.4-.32.51-.52.11-.2.17-.41.17-.65,0-.31-.09-.59-.27-.84s-.42-.47-.74-.68-.68-.41-1.11-.61-.89-.39-1.38-.6c-1.26-.52-2.2-1.16-2.81-1.92-.62-.76-.93-1.67-.93-2.74,0-.84.17-1.56.51-2.16.34-.6.79-1.1,1.38-1.49.58-.39,1.25-.68,2.02-.86.76-.18,1.57-.28,2.43-.28s1.58.05,2.23.15c.65.1,1.25.26,1.79.47v3.36c-.27-.19-.56-.35-.88-.49s-.65-.26-.98-.35c-.34-.09-.67-.16-1-.21s-.65-.07-.95-.07c-.41,0-.79.04-1.12.12-.34.08-.62.19-.85.33-.23.14-.41.31-.54.51-.13.2-.19.42-.19.67,0,.27.07.51.21.72s.34.42.61.61c.26.19.58.38.95.56s.8.37,1.27.57c.64.27,1.22.56,1.74.86.51.3.95.65,1.32,1.03s.65.82.84,1.31.29,1.06.29,1.71c0,.9-.17,1.65-.51,2.26s-.8,1.1-1.39,1.48-1.26.65-2.04.81c-.77.17-1.59.25-2.45.25s-1.72-.08-2.52-.22c-.8-.15-1.49-.38-2.07-.67h-.02Z"/>
  </g>
</svg>