<?xml version="1.0" standalone="no"?>
<!DOCTYPE svg PUBLIC "-//W3C//DTD SVG 20010904//EN"
 "http://www.w3.org/TR/2001/REC-SVG-20010904/DTD/svg10.dtd">
<svg version="1.0" xmlns="http://www.w3.org/2000/svg"
 width="90.000000pt" height="60.000000pt" viewBox="0 0 90.000000 60.000000"
 preserveAspectRatio="xMidYMid meet">
<metadata>
Created by potrace 1.10, written by Peter Selinger 2001-2011
</metadata>
<g transform="translate(0.000000,60.000000) scale(0.023000,-0.023000)"
fill="#666" stroke="none">
<path d="M192 2007 l-22 -23 0 -885 0 -886 23 -21 23 -22 1577 0 c1564 0 1577
0 1597 20 20 20 20 33 20 908 l0 889 -23 21 -23 22 -1575 0 -1576 0 -21 -23z
m673 -335 c12 -9 39 -39 60 -67 22 -27 48 -59 57 -70 9 -11 36 -45 60 -76 98
-127 150 -189 161 -189 7 1 27 20 44 43 18 23 59 74 90 114 32 39 80 100 107
135 27 35 63 78 80 96 l30 32 161 0 c112 0 165 -4 173 -12 9 -9 12 -153 12
-585 0 -556 -1 -573 -19 -583 -23 -12 -300 -14 -318 -2 -10 6 -13 84 -15 312
l-3 305 -22 0 c-22 0 -33 -13 -155 -170 -61 -78 -73 -94 -137 -165 l-32 -35
-28 35 c-16 19 -84 104 -151 188 -83 105 -127 152 -138 150 -15 -3 -17 -31
-20 -302 -2 -209 -6 -304 -14 -313 -9 -12 -43 -14 -169 -11 -87 2 -160 6 -164
9 -8 8 -8 1156 0 1169 4 6 74 10 168 10 139 0 165 -3 182 -18z m1979 1 c4 -9
6 -142 6 -294 -1 -153 1 -283 5 -289 5 -8 56 -11 163 -9 110 2 157 -1 160 -9
2 -6 -16 -31 -40 -54 -24 -24 -76 -82 -117 -128 -41 -47 -77 -87 -81 -90 -3
-3 -64 -70 -135 -148 l-129 -144 -56 59 c-50 53 -134 146 -275 303 -27 30 -78
85 -113 121 -36 37 -62 73 -60 80 3 10 37 12 149 10 79 -1 152 1 162 4 16 7
17 30 17 290 0 156 3 290 6 299 5 14 30 16 169 16 143 0 164 -2 169 -17z"/>
</g>
</svg>
